# xmcd CD database file
#
# Track frame offsets:
#	150
#	29435
#	62013
#	106739
#	138285
#	176285
#
# Disc length: 2771 seconds
#
# Revision: 1
# Processed by: cddbd v1.5PL3 Copyright (c) Steve Scherf et al.
# Submitted via: CDex 1.51
#
DISCID=440ad106
DTITLE=Tete Montoliu - Tete!
DYEAR=1974
DGENRE=Jazz
TTITLE0=Giant Steps
TTITLE1=Theme For Ernie
TTITLE2=Body And Soul
TTITLE3=Solar
TTITLE4=I Remember Clifford
TTITLE5=Hot House
EXTD=YEAR: 1974
EXTT0=
EXTT1=
EXTT2=
EXTT3=
EXTT4=
EXTT5=
PLAYORDER=
